<svg height="574" width="720" xmlns="http://www.w3.org/2000/svg">
<rect height="574" fill="#555" width="720"></rect>
<text fill="#7f7" font-family="Courier New" font-size="12" xml:space="preserve">
<tspan x="10" y="26">9 megabytes installed</tspan>
<tspan x="10" y="42"></tspan>
<tspan x="10" y="58">node_modules</tspan>
<tspan x="10" y="74">└─┬ grunt-contrib-stylus@1.2.0 </tspan>
<tspan x="10" y="90">  ├── async@1.5.2 </tspan>
<tspan x="10" y="106">  ├─┬ chalk@1.1.3 </tspan>
<tspan x="10" y="122">  │ ├── ansi-styles@2.2.1 </tspan>
<tspan x="10" y="138">  │ ├── escape-string-regexp@1.0.5 </tspan>
<tspan x="10" y="154">  │ ├─┬ has-ansi@2.0.0 </tspan>
<tspan x="10" y="170">  │ │ └── ansi-regex@2.1.1 </tspan>
<tspan x="10" y="186">  │ ├── strip-ansi@3.0.1 </tspan>
<tspan x="10" y="202">  │ └── supports-color@2.0.0 </tspan>
<tspan x="10" y="218">  ├── lodash@4.17.4 </tspan>
<tspan x="10" y="234">  ├── nib@1.1.2 </tspan>
<tspan x="10" y="250">  └─┬ stylus@0.54.5 </tspan>
<tspan x="10" y="266">    ├── css-parse@1.7.0 </tspan>
<tspan x="10" y="282">    ├─┬ debug@2.6.3 </tspan>
<tspan x="10" y="298">    │ └── ms@0.7.2 </tspan>
<tspan x="10" y="314">    ├─┬ glob@7.0.6 </tspan>
<tspan x="10" y="330">    │ ├── fs.realpath@1.0.0 </tspan>
<tspan x="10" y="346">    │ ├─┬ inflight@1.0.6 </tspan>
<tspan x="10" y="362">    │ │ └── wrappy@1.0.2 </tspan>
<tspan x="10" y="378">    │ ├── inherits@2.0.3 </tspan>
<tspan x="10" y="394">    │ ├─┬ minimatch@3.0.3 </tspan>
<tspan x="10" y="410">    │ │ └─┬ brace-expansion@1.1.7 </tspan>
<tspan x="10" y="426">    │ │   ├── balanced-match@0.4.2 </tspan>
<tspan x="10" y="442">    │ │   └── concat-map@0.0.1 </tspan>
<tspan x="10" y="458">    │ ├── once@1.4.0 </tspan>
<tspan x="10" y="474">    │ └── path-is-absolute@1.0.1 </tspan>
<tspan x="10" y="490">    ├─┬ mkdirp@0.5.1 </tspan>
<tspan x="10" y="506">    │ └── minimist@0.0.8 </tspan>
<tspan x="10" y="522">    ├── sax@0.5.8 </tspan>
<tspan x="10" y="538">    └─┬ source-map@0.1.43 </tspan>
<tspan x="10" y="554">      └── amdefine@1.0.1</tspan>
</text>
</svg>
